<?xml version="1.0" encoding="UTF-8" standalone="no" ?>
<!DOCTYPE svg PUBLIC "-//W3C//DTD SVG 1.1//EN" "http://www.w3.org/Graphics/SVG/1.1/DTD/svg11.dtd">
<svg xmlns="http://www.w3.org/2000/svg" xmlns:xlink="http://www.w3.org/1999/xlink" version="1.1" width="600" height="400" viewBox="0 0 600 400" xml:space="preserve">
<desc>Created with Fabric.js 5.3.0</desc>
<defs>
</defs>
<g transform="matrix(0.72 0.01 -0.01 0.84 300 141.38)" style=""  >
		<text xml:space="preserve" font-family="Nosifer-Regular" font-size="40" font-style="normal" font-weight="normal" style="stroke: rgb(189,198,245); stroke-width: 0; stroke-dasharray: none; stroke-linecap: butt; stroke-dashoffset: 0; stroke-linejoin: miter; stroke-miterlimit: 4; fill: rgb(98,82,163); fill-rule: nonzero; opacity: 1; white-space: pre;" paint-order="stroke"  ><tspan x="-369.46" y="12.57" style="white-space: pre; ">Generat    r Jadłospisów</tspan></text>
</g>
<g transform="matrix(0.14 0 0 0.14 228.56 141.38)"  >
<path style="stroke: rgb(0,0,0); stroke-width: 0; stroke-dasharray: none; stroke-linecap: butt; stroke-dashoffset: 0; stroke-linejoin: miter; stroke-miterlimit: 4; fill: rgb(98,82,163); fill-rule: nonzero; opacity: 1;"  transform=" translate(-107.94, -109.29)" d="M 203.01 54.63 L 187.04999999999998 60.88 C 180.49999999999997 48.120000000000005 170.70999999999998 38.480000000000004 157.69 31.970000000000002 L 164.39 12.890000000000004 L 135.48 3.1300000000000043 L 128.84 19.090000000000003 C 116.12 17.050000000000004 103.23 17.050000000000004 90.16 19.090000000000003 L 80.41 0 L 51.559999999999995 12.89 L 58.199999999999996 31.97 L 32.419999999999995 57.75 L 12.889999999999993 51.56 L 0 80.41 L 19.59 90.17 C 17.509999999999998 102.89 17.509999999999998 115.78 19.59 128.85 L 0 135.04 L 12.89 163.89 L 32.42 157.7 L 58.2 183.48 L 51.56 202.56 L 80.41 215.45 L 87.11 196.37 C 99.83 200.5 112.7 200.5 125.72 196.37 L 135.48 218.58 L 164.39 205.69 L 154.55999999999997 186.54 C 167.61999999999998 180.03 177.25999999999996 171.45999999999998 183.46999999999997 160.82 L 202.99999999999997 167.45999999999998 L 215.89 138.17 L 196.35999999999999 128.85 C 200.77999999999997 115.78999999999999 200.77999999999997 102.89999999999999 196.35999999999999 90.16999999999999 L 215.89 83.52999999999999 L 203 54.61999999999999 Z M 151.51 125.28 C 138.48999999999998 153.4 118.04999999999998 162 90.17999999999999 151.06 C 64.44 140.38 57.03999999999999 120.09 67.97 90.18 C 72.14 79.25 79.53999999999999 71.69000000000001 90.18 67.52000000000001 C 103.24000000000001 63.10000000000001 115.09 63.10000000000001 125.73 67.52000000000001 C 153.56 80.24000000000001 162.15 99.49000000000001 151.51 125.28 Z" stroke-linecap="round" />
</g>
</svg>